<svg xmlns="http://www.w3.org/2000/svg" xmlns:xlink="http://www.w3.org/1999/xlink" width="2000" zoomAndPan="magnify" viewBox="0 0 1500 1499.999933" height="2000" preserveAspectRatio="xMidYMid meet" version="1.0"><defs><clipPath id="811f3c9965"><path d="M 29 57.183594 L 1471 57.183594 L 1471 1443.179688 L 29 1443.179688 Z M 29 57.183594 " clip-rule="nonzero"/></clipPath></defs><g clip-path="url(#811f3c9965)"><path fill="#000000" d="M 1441.570312 226.855469 C 1470.75 245.75 1479.09375 284.742188 1460.207031 313.96875 L 1356.957031 473.621094 C 1393.878906 558.375 1414.75 651.789062 1414.75 750.183594 C 1414.75 1132.851562 1104.683594 1443.082031 722.214844 1443.082031 C 339.742188 1443.082031 29.675781 1132.851562 29.675781 750.183594 C 29.675781 367.511719 339.742188 57.28125 722.214844 57.28125 C 908.570312 57.28125 1077.296875 130.667969 1201.636719 250.035156 L 747.398438 952.382812 L 463.457031 626.71875 C 440.476562 600.578125 400.8125 598.058594 374.6875 620.734375 C 348.242188 643.726562 345.726562 683.410156 368.390625 709.550781 L 707.417969 1098.207031 C 719.378906 1112.0625 736.695312 1119.9375 754.953125 1119.9375 C 756.210938 1119.9375 757.785156 1119.621094 759.359375 1119.621094 C 778.875 1118.363281 796.820312 1107.65625 807.519531 1090.960938 L 1354.5 245.53125 C 1373.386719 216.335938 1412.390625 207.957031 1441.570312 226.855469 Z M 1441.570312 226.855469 " fill-opacity="1" fill-rule="nonzero"/></g></svg>